<svg width="22" height="22" viewBox="0 0 22 22" fill="none" xmlns="http://www.w3.org/2000/svg">
<circle cx="11" cy="11" r="11" fill="white"/>
<path d="M11 22C17.0068 22 22 17.0176 22 11C22 4.99314 16.996 0 10.9892 0C4.97152 0 0 4.99314 0 11C0 17.0176 4.98233 22 11 22ZM11 20.1667C5.90977 20.1667 1.84406 16.0902 1.84406 11C1.84406 5.92058 5.899 1.83334 10.9892 1.83334C16.0686 1.83334 20.1558 5.92058 20.1667 11C20.1775 16.0902 16.0794 20.1667 11 20.1667ZM6.25487 15.8853H15.7235C16.8558 15.8853 17.4489 15.3137 17.4489 14.1922V8.43335C17.4489 7.30097 16.8558 6.72944 15.7235 6.72944H14.4293C13.998 6.72944 13.8686 6.65394 13.6205 6.37353L13.1784 5.87747C12.9088 5.57548 12.6284 5.41375 12.0676 5.41375H9.86762C9.30681 5.41375 9.02646 5.57548 8.74601 5.87747L8.30387 6.37353C8.05581 6.63236 7.92643 6.72944 7.49505 6.72944H6.25487C5.10095 6.72944 4.51861 7.30097 4.51861 8.43335V14.1922C4.51861 15.3137 5.10095 15.8853 6.25487 15.8853ZM10.9244 14.3539C9.13427 14.3539 7.67842 12.9196 7.67842 11.1079C7.67842 9.31763 9.13427 7.88336 10.9244 7.88336C12.7147 7.88336 14.1489 9.31763 14.1489 11.1079C14.1489 12.952 12.7147 14.3539 10.9244 14.3539ZM15.1627 9.67354C14.7637 9.67354 14.4293 9.35002 14.4293 8.94018C14.4293 8.53039 14.7637 8.20687 15.1627 8.20687C15.5617 8.20687 15.8852 8.53039 15.8852 8.94018C15.896 9.35002 15.5617 9.67354 15.1627 9.67354ZM10.9244 13.4157C12.1862 13.4157 13.2215 12.3912 13.2215 11.1079C13.2215 9.83532 12.1862 8.81079 10.9244 8.81079C9.65191 8.81079 8.61662 9.83532 8.61662 11.1079C8.61662 12.3912 9.65191 13.4157 10.9244 13.4157Z" fill="black"/>
</svg>
