<svg width="334" height="154" viewBox="0 0 334 154" fill="none" xmlns="http://www.w3.org/2000/svg">
<g clip-path="url(#clip0_11881_741)">
<path d="M40.1645 91.1939C46.0972 91.1939 50.6951 93.5634 54.3318 97.9827C54.4921 98.1842 54.6076 98.4175 54.6706 98.6671C54.7336 98.9166 54.7427 99.1766 54.6972 99.4299C54.6517 99.6832 54.5528 99.924 54.4069 100.136C54.2611 100.348 54.0716 100.527 53.8513 100.66L49.4492 104.855C48.5889 105.619 47.7287 105.145 47.0761 104.57C46.2491 103.63 45.2346 102.872 44.0976 102.346C42.9606 101.82 41.726 101.536 40.473 101.513C35.3056 101.513 31.0934 105.909 31.0934 111.264C31.0934 116.714 35.2107 121.015 40.3781 121.015C44.4954 121.015 46.3108 119.007 48.0372 117.384C48.3261 117.05 48.729 116.835 49.1677 116.782C49.6063 116.728 50.0492 116.839 50.4103 117.094L54.5276 120.648C55.4828 121.412 55.8684 122.366 55.198 123.326C51.9409 128.391 46.8922 131.358 40.0755 131.358C29.2602 131.358 19.7856 122.757 19.7856 111.288C19.7797 99.9851 29.4441 91.1939 40.1645 91.1939ZM76.0574 106.199C78.4282 106.202 80.7861 106.548 83.058 107.224C83.1529 102.349 81.6223 100.631 78.0805 100.631C74.4631 100.687 70.8649 101.168 67.3601 102.064C66.0193 102.444 65.3489 101.585 65.159 100.346L64.2869 95.3762C64.2125 95.1327 64.1884 94.8767 64.2162 94.6237C64.2439 94.3706 64.3229 94.1258 64.4483 93.9042C64.5737 93.6826 64.7429 93.4887 64.9456 93.3344C65.1484 93.1801 65.3805 93.0686 65.6277 93.0066C69.8703 91.8448 74.2451 91.2335 78.6441 91.1879C90.6104 91.1879 93.3869 97.4022 93.3869 107.817V128.551C93.372 129.028 93.1754 129.482 92.837 129.82C92.4986 130.158 92.0439 130.354 91.5655 130.369H88.1186C87.4482 130.369 86.9677 130.085 86.4931 129.03L85.3421 126.448C83.1411 128.456 79.5992 131.323 73.6665 131.323C66.0074 131.323 60.7451 126.353 60.7451 118.225C60.7451 111.454 66.2922 106.199 76.0574 106.199ZM76.2473 123.213C79.3085 123.213 82.2808 120.63 82.8504 119.487V114.232C81.1561 113.526 79.3462 113.136 77.5109 113.083C73.7793 113.083 71.2875 115.186 71.2875 118.243C71.2537 118.903 71.3586 119.563 71.5956 120.181C71.8326 120.798 72.1963 121.359 72.6634 121.828C73.1306 122.297 73.6908 122.662 74.308 122.902C74.9252 123.142 75.5858 123.25 76.2473 123.219V123.213ZM104.416 93.9663C104.416 93.7277 104.463 93.4915 104.555 93.2712C104.646 93.0509 104.78 92.8508 104.95 92.6824C105.119 92.514 105.32 92.3806 105.541 92.2898C105.762 92.1991 105.998 92.1528 106.237 92.1535H109.874C110.256 92.1487 110.63 92.2671 110.94 92.4912C111.25 92.7153 111.48 93.0331 111.594 93.3976L112.935 97.1238C114.276 95.2103 117.818 91.1998 123.751 91.1998C128.248 91.1998 132.27 92.6334 131.119 95.0207L127.559 101.235C127.374 101.634 127.042 101.946 126.632 102.106C126.221 102.266 125.765 102.262 125.358 102.094C124.464 101.771 123.53 101.572 122.582 101.502C121.198 101.493 119.837 101.855 118.641 102.548C117.444 103.242 116.456 104.243 115.777 105.447V128.551C115.777 129.889 114.917 130.369 113.576 130.369H106.196C105.725 130.344 105.28 130.143 104.951 129.806C104.621 129.47 104.43 129.021 104.416 128.551V93.9663ZM153.39 91.1939C163.251 91.1939 171.289 98.6462 171.289 108.966C171.274 109.83 171.21 110.692 171.1 111.549C171.045 111.994 170.83 112.404 170.495 112.703C170.16 113.001 169.727 113.168 169.278 113.172H144.758C144.965 115.455 146.026 117.576 147.729 119.113C149.432 120.65 151.653 121.49 153.948 121.465C156.618 121.441 159.218 120.615 161.411 119.096C162.367 118.503 163.233 118.332 163.903 119.096L167.825 123.586C168.008 123.741 168.153 123.935 168.25 124.154C168.347 124.373 168.393 124.611 168.384 124.85C168.374 125.09 168.311 125.324 168.198 125.535C168.084 125.746 167.924 125.928 167.73 126.068C164.574 129.03 159.691 131.329 153.491 131.329C142.005 131.329 133.866 122.247 133.866 111.258C133.866 100.465 142 91.1939 153.39 91.1939ZM160.088 106.484C159.935 104.728 159.136 103.09 157.846 101.887C156.555 100.684 154.865 100 153.1 99.9673C151.277 99.9694 149.517 100.631 148.145 101.829C146.773 103.027 145.882 104.68 145.636 106.484H160.088ZM179.328 93.9663C179.328 93.7277 179.375 93.4915 179.467 93.2712C179.559 93.0509 179.693 92.8508 179.862 92.6824C180.031 92.514 180.232 92.3806 180.453 92.2898C180.674 92.1991 180.911 92.1528 181.15 92.1535H184.709C185.057 92.1313 185.403 92.2212 185.695 92.41C185.988 92.5987 186.212 92.8764 186.335 93.2021L187.676 96.8335C189.306 95.0586 191.289 93.641 193.496 92.6702C195.704 91.6995 198.09 91.1968 200.502 91.1939C205.96 91.1939 209.787 93.2969 212.961 97.1178C214.586 95.3999 219.564 91.1939 226.458 91.1939C238.709 91.1939 243.212 100.275 243.212 110.311V128.551C243.212 128.79 243.166 129.026 243.075 129.247C242.983 129.468 242.849 129.669 242.68 129.838C242.511 130.007 242.31 130.141 242.088 130.232C241.867 130.323 241.63 130.37 241.39 130.369H233.601C233.361 130.37 233.124 130.323 232.903 130.232C232.681 130.141 232.48 130.007 232.311 129.838C232.142 129.669 232.008 129.468 231.916 129.247C231.825 129.026 231.779 128.79 231.779 128.551V109.641C231.779 104.671 229.406 101.519 224.601 101.519C223.032 101.482 221.479 101.828 220.074 102.527C218.67 103.226 217.459 104.257 216.544 105.53C216.544 105.53 216.639 107.443 216.639 109.161V128.551C216.624 129.028 216.428 129.482 216.089 129.82C215.751 130.158 215.296 130.354 214.818 130.369H207.645C207.169 130.36 206.715 130.164 206.382 129.824C206.049 129.484 205.864 129.026 205.865 128.551V109.641C205.865 104.671 203.664 101.519 198.782 101.519C193.994 101.519 191.698 104.961 190.743 107.544V128.551C190.728 129.028 190.531 129.482 190.193 129.82C189.854 130.158 189.4 130.354 188.921 130.369H181.144C180.665 130.354 180.211 130.158 179.872 129.82C179.534 129.482 179.337 129.028 179.322 128.551L179.328 93.9663ZM266.426 106.199C268.793 106.203 271.147 106.549 273.415 107.224C273.51 102.349 271.979 100.631 268.438 100.631C264.82 100.687 261.222 101.168 257.717 102.064C256.376 102.444 255.706 101.585 255.516 100.346L254.65 95.3762C254.576 95.1327 254.551 94.8767 254.579 94.6237C254.607 94.3706 254.686 94.1258 254.811 93.9042C254.937 93.6826 255.106 93.4887 255.309 93.3344C255.511 93.1801 255.743 93.0686 255.991 93.0066C260.233 91.8448 264.608 91.2335 269.007 91.1879C280.973 91.1879 283.75 97.4022 283.75 107.817V128.551C283.735 129.028 283.538 129.482 283.2 129.82C282.862 130.158 282.407 130.354 281.929 130.369H278.482C277.811 130.369 277.331 130.085 276.856 129.03L275.705 126.448C273.498 128.468 269.939 131.335 264.006 131.335C256.347 131.335 251.084 126.365 251.084 118.237C251.108 111.454 256.661 106.199 266.426 106.199ZM266.616 123.219C269.678 123.219 272.65 120.636 273.219 119.493V114.238C271.525 113.532 269.715 113.142 267.88 113.089C264.148 113.089 261.656 115.192 261.656 118.249C261.624 118.909 261.729 119.568 261.966 120.185C262.204 120.802 262.568 121.362 263.035 121.83C263.502 122.298 264.062 122.663 264.678 122.902C265.295 123.142 265.955 123.249 266.616 123.219ZM306.526 152.187C306.526 153.336 305.932 154.006 304.23 154.006H296.576C296.099 153.99 295.645 153.793 295.307 153.455C294.968 153.118 294.771 152.664 294.755 152.187V93.9663C294.755 93.7277 294.802 93.4915 294.894 93.2712C294.985 93.0509 295.12 92.8508 295.289 92.6824C295.458 92.514 295.659 92.3806 295.88 92.2898C296.101 92.1991 296.338 92.1528 296.576 92.1535H300.308C300.664 92.1518 301.013 92.261 301.304 92.4659C301.595 92.6708 301.815 92.9613 301.934 93.2969L303.18 96.4544C304.615 94.5409 309.308 91.1939 315.526 91.1939C326.056 91.1939 334 100.275 334 111.264C334 122.52 325.386 131.335 315.045 131.335C312.08 131.303 309.163 130.583 306.526 129.232V152.187ZM313.514 121.015C318.854 121.015 322.799 116.62 322.799 111.264C322.799 105.909 319.162 101.513 313.9 101.513C312.139 101.518 310.426 102.086 309.013 103.136C307.6 104.185 306.562 105.66 306.051 107.343V118.811C306.051 118.811 308.733 121.015 313.514 121.015Z" fill="#346682"/>
<g style="mix-blend-mode:multiply">
<path d="M113.683 17.6831C106.006 3.02715 88.0771 -3.64326 72.6817 2.14448C67.1576 4.21659 62.2944 7.73632 58.6034 12.3337C47.4914 26.267 51.7629 46.758 53.9877 62.9424C55.2098 71.8757 56.7108 80.8032 58.7339 89.6536C66.6363 85.3054 74.3547 80.5662 81.8715 75.5901C95.5167 66.5975 113.784 56.3134 116.969 38.7903C118.243 31.5852 117.087 24.1619 113.683 17.6831ZM84.3929 43.411C82.3031 43.411 80.2602 42.7922 78.5226 41.6329C76.785 40.4736 75.4307 38.8258 74.631 36.8979C73.8313 34.97 73.622 32.8487 74.0297 30.802C74.4374 28.7554 75.4438 26.8755 76.9215 25.3999C78.3992 23.9244 80.2819 22.9196 82.3315 22.5125C84.3811 22.1054 86.5057 22.3143 88.4364 23.1129C90.3671 23.9114 92.0173 25.2637 93.1783 26.9987C94.3393 28.7338 94.959 30.7736 94.959 32.8604C94.959 35.6586 93.8458 38.3421 91.8643 40.3208C89.8827 42.2994 87.1952 43.411 84.3929 43.411Z" fill="#49AFBE"/>
</g>
<g style="mix-blend-mode:multiply">
<path d="M58.9475 12.3752C54.3674 6.66582 48.0203 2.6344 40.9001 0.912287C24.8047 -3.00347 7.94391 6.01877 2.13578 21.3974C0.044821 26.908 -0.520807 32.8793 0.498349 38.6836C3.64269 56.2186 21.8561 66.5264 35.5014 75.5723C43.03 80.5662 50.7366 85.3054 58.7339 89.6536C60.6917 80.8506 62.2105 71.9231 63.4801 62.9957C65.7048 46.7995 70.006 26.3321 58.9475 12.3752ZM33.0986 43.411C31.0088 43.411 28.966 42.7922 27.2284 41.6329C25.4908 40.4736 24.1365 38.8258 23.3368 36.8979C22.537 34.97 22.3278 32.8487 22.7355 30.802C23.1432 28.7554 24.1495 26.8755 25.6272 25.3999C27.1049 23.9244 28.9876 22.9196 31.0373 22.5125C33.0869 22.1054 35.2114 22.3143 37.1421 23.1129C39.0728 23.9114 40.723 25.2637 41.8841 26.9987C43.0451 28.7338 43.6648 30.7736 43.6648 32.8604C43.6648 34.2459 43.3915 35.6178 42.8605 36.8979C42.3295 38.178 41.5512 39.3411 40.57 40.3208C39.5889 41.3005 38.4241 42.0776 37.1421 42.6079C35.8602 43.1381 34.4862 43.411 33.0986 43.411Z" fill="#F26651"/>
</g>
</g>
<defs>
<clipPath id="clip0_11881_741">
<rect width="334" height="154" fill="white"/>
</clipPath>
</defs>
</svg>
