<svg width="42" height="42" viewBox="0 0 42 42" fill="none" xmlns="http://www.w3.org/2000/svg">
<path d="M21.0337 10.0921C22.8543 10.0921 24.3293 8.61608 24.3293 6.79711C24.3293 4.97547 22.8543 3.5 21.0337 3.5C19.2122 3.5 17.7377 4.97547 17.7377 6.79711C17.7377 8.61602 19.2122 10.0921 21.0337 10.0921Z" fill="white" fill-opacity="0.5"/>
<path d="M25.4587 12.1641L21.0337 16.589L16.5809 12.1367C15.5722 12.764 14.7754 13.9079 14.7754 14.9885V26.0668C14.7754 26.8657 15.4224 27.5128 16.2214 27.5128C16.6136 27.5128 16.2214 27.5128 17.2301 27.5128L17.7801 36.961C17.7801 37.8109 18.469 38.4999 19.3195 38.4999C19.6774 38.4999 20.3394 38.4999 21 38.4999C21.661 38.4999 22.322 38.4999 22.681 38.4999C23.5308 38.4999 24.2193 37.8109 24.2193 36.961L24.7697 27.5128C25.7785 27.5128 25.3851 27.5128 25.7785 27.5128C26.5769 27.5128 27.2239 26.8657 27.2239 26.0668V14.9885C27.224 13.9229 26.4492 12.7967 25.4587 12.1641Z" fill="white" fill-opacity="0.5"/>
<path d="M20.0481 14.8294L21.0316 15.8129L21.9438 14.9013V13.1265H20.0481V14.8294Z" fill="white" fill-opacity="0.5"/>
<path d="M21.9421 11.2783H20.0492V12.4915H21.9421V11.2783Z" fill="white" fill-opacity="0.5"/>
<path d="M31.4392 13.6913C33.0306 13.6913 34.3173 12.4025 34.3173 10.8127C34.3173 9.22293 33.0306 7.93408 31.4392 7.93408C29.8499 7.93408 28.5617 9.22286 28.5617 10.8127C28.5617 12.4025 29.8499 13.6913 31.4392 13.6913Z" fill="white" fill-opacity="0.5"/>
<path d="M34.813 15.2432L31.3812 18.6744L29.117 16.4101V26.0671C29.117 26.9958 28.7328 27.8317 28.118 28.437V28.9054L28.5982 37.156C28.5982 37.8981 29.2008 38.5 29.9423 38.5C30.2562 38.5 30.8329 38.5 31.4103 38.5C31.9881 38.5 32.5655 38.5 32.8782 38.5C33.6208 38.5 34.2223 37.8981 34.2223 37.156L34.7025 28.9054C35.5836 28.9054 35.2407 28.9054 35.5836 28.9054C36.2812 28.9054 36.8461 28.3404 36.8461 27.6418V17.9678C36.846 16.8651 35.8979 15.6896 34.813 15.2432Z" fill="white" fill-opacity="0.5"/>
<path d="M31.3828 17.8951L32.2843 16.9942V15.8267H30.5533V17.0656L31.3828 17.8951Z" fill="white" fill-opacity="0.5"/>
<path d="M32.2853 14.4531H30.5528V15.2494H32.2853V14.4531Z" fill="white" fill-opacity="0.5"/>
<path d="M10.5607 13.6913C12.15 13.6913 13.4383 12.4025 13.4383 10.8127C13.4383 9.22293 12.15 7.93408 10.5607 7.93408C8.96934 7.93408 7.68268 9.22286 7.68268 10.8127C7.68268 12.4025 8.96934 13.6913 10.5607 13.6913Z" fill="white" fill-opacity="0.5"/>
<path d="M12.883 16.4101L10.6187 18.6744L7.18694 15.2432C6.10208 15.6896 5.15393 16.8651 5.15393 17.9678V27.6419C5.15393 28.3405 5.71892 28.9055 6.41639 28.9055C6.75921 28.9055 6.41639 28.9055 7.29741 28.9055L7.7777 37.156C7.7777 37.8981 8.37913 38.5001 9.12171 38.5001C9.43453 38.5001 10.0119 38.5001 10.5897 38.5001C11.1671 38.5001 11.7438 38.5001 12.0577 38.5001C12.7993 38.5001 13.4018 37.8981 13.4018 37.156L13.8821 28.9055V28.4371C13.2672 27.8318 12.8831 26.9958 12.8831 26.0671V16.4101H12.883Z" fill="white" fill-opacity="0.5"/>
<path d="M10.6171 17.8951L11.4466 17.0656V15.8267H9.7157V16.9942L10.6171 17.8951Z" fill="white" fill-opacity="0.5"/>
<path d="M11.4472 14.4531H9.7146V15.2494H11.4472V14.4531Z" fill="white" fill-opacity="0.5"/>
</svg>
