<svg width="42" height="42" viewBox="0 0 42 42" fill="none" xmlns="http://www.w3.org/2000/svg">
<path fill-rule="evenodd" clip-rule="evenodd" d="M33.4817 24.4999C31.3863 27.9209 28.2834 31.6105 24.1728 35.5688L22.9465 36.7299C22.7373 36.9247 22.5258 37.1201 22.3119 37.3161L21 38.5C20.3298 37.9043 19.681 37.3142 19.0535 36.7299L17.8272 35.5688C13.7166 31.6105 10.6137 27.9209 8.51826 24.4999L12.7057 24.5C14.5625 27.13 17.0802 29.9914 20.2739 33.0656L21 33.7558L21.1217 33.6423C24.6038 30.3486 27.3219 27.2938 29.2943 24.4999L33.4817 24.4999ZM15.75 10.0869L21 20.5853L23.625 15.3369L25.5815 19.25H38.5V22.75H23.8315L21 28.4131L15.75 17.913L13.3316 22.75H3.5V19.25H11.1667L15.75 10.0869ZM27.3 5.25C32.5191 5.25 36.75 9.48097 36.75 14.7C36.75 15.6064 36.649 16.5397 36.4469 17.4999L32.8503 17.4999C33.0825 16.6425 33.2132 15.8243 33.2433 15.0464L33.25 14.7C33.25 11.4139 30.5861 8.75 27.3 8.75C25.948 8.75 24.6743 9.19879 23.6404 10.0096L23.3376 10.2636L21.0028 12.3567L18.6667 10.265C17.5816 9.29347 16.1877 8.75 14.7 8.75C11.4139 8.75 8.75 11.4139 8.75 14.7C8.75 15.5804 8.88276 16.5143 9.14972 17.4999L5.55312 17.4999C5.35104 16.5397 5.25 15.6064 5.25 14.7C5.25 9.48091 9.48091 5.25 14.7 5.25C17.121 5.25 19.3293 6.16039 21.0014 7.65749C22.6721 6.15981 24.8798 5.25 27.3 5.25Z" fill="white" fill-opacity="0.5"/>
</svg>
