<svg width="42" height="42" viewBox="0 0 42 42" fill="none" xmlns="http://www.w3.org/2000/svg">
<path d="M22.9119 11.5455C23.3247 11.0537 23.2641 10.3176 22.7763 9.90122C22.2884 9.48491 21.5585 9.54609 21.1454 10.0379L22.9119 11.5455ZM16.8857 16.9167L16.0026 16.1629C15.7114 16.5095 15.6464 16.9953 15.8359 17.4074C16.0255 17.8197 16.4351 18.0833 16.8857 18.0833V16.9167ZM25.1144 16.9167L25.9975 17.6706C26.2887 17.3238 26.3537 16.838 26.1641 16.426C25.9746 16.0137 25.565 15.75 25.1144 15.75V16.9167ZM19.0882 22.2878C18.6753 22.7796 18.736 23.5158 19.2238 23.9321C19.7117 24.3483 20.4418 24.2872 20.8547 23.7956L19.0882 22.2878ZM17.9144 36.1667C17.2752 36.1667 16.7572 36.6891 16.7572 37.3333C16.7572 37.9776 17.2752 38.5 17.9144 38.5V36.1667ZM24.0857 38.5C24.7249 38.5 25.2428 37.9776 25.2428 37.3333C25.2428 36.6891 24.7249 36.1667 24.0857 36.1667V38.5ZM9.81429 16.9167C9.81429 10.8128 14.8051 5.83333 21 5.83333V3.5C13.5614 3.5 7.5 9.4896 7.5 16.9167H9.81429ZM21 5.83333C27.1949 5.83333 32.1857 10.8128 32.1857 16.9167H34.5C34.5 9.4896 28.4386 3.5 21 3.5V5.83333ZM32.1857 16.9167C32.1857 21.0422 29.9101 24.651 26.5157 26.5613L27.6439 28.5987C31.7293 26.2992 34.5 21.9345 34.5 16.9167H32.1857ZM26.5157 26.5613C24.8897 27.4764 23.0086 28 21 28V30.3333C23.4122 30.3333 25.6807 29.7036 27.6439 28.5987L26.5157 26.5613ZM21 28C18.9915 28 17.1104 27.4764 15.4843 26.5613L14.3563 28.5987C16.3194 29.7036 18.5878 30.3333 21 30.3333V28ZM15.4843 26.5613C12.0901 24.651 9.81429 21.0422 9.81429 16.9167H7.5C7.5 21.9345 10.2708 26.2992 14.3563 28.5987L15.4843 26.5613ZM16.7158 31.3469L16.0617 27.3882L13.7789 27.7716L14.433 31.7305L16.7158 31.3469ZM25.9385 27.3882L25.284 31.3472L27.5668 31.7305L28.2213 27.7718L25.9385 27.3882ZM21.1454 10.0379L16.0026 16.1629L17.7688 17.6706L22.9119 11.5455L21.1454 10.0379ZM16.8857 18.0833H25.1144V15.75H16.8857V18.0833ZM24.2313 16.1629L19.0882 22.2878L20.8547 23.7956L25.9975 17.6706L24.2313 16.1629ZM24.3956 32.0833H17.6045V34.4167H24.3956V32.0833ZM17.9144 38.5H24.0857V36.1667H17.9144V38.5ZM25.284 31.3472C25.2162 31.7583 24.8506 32.0833 24.3956 32.0833V34.4167C25.9556 34.4167 27.3086 33.2929 27.5668 31.7305L25.284 31.3472ZM14.433 31.7305C14.6912 33.2929 16.0443 34.4167 17.6045 34.4167V32.0833C17.1493 32.0833 16.7839 31.7583 16.7158 31.3469L14.433 31.7305Z" fill="#00FFEA"/>
</svg>
