<svg width="42" height="42" viewBox="0 0 42 42" fill="none" xmlns="http://www.w3.org/2000/svg">
<path d="M21 9.7561L20.0413 10.6525C20.2895 10.9179 20.6365 11.0686 21 11.0686C21.3635 11.0686 21.7105 10.9179 21.9587 10.6525L21 9.7561ZM16.5101 32.8949C13.9728 30.8359 11.0104 28.1361 8.69349 25.1811C6.35129 22.1938 4.8125 19.127 4.8125 16.307H2.1875C2.1875 20.0133 4.16572 23.6607 6.62776 26.8007C9.1151 29.9731 12.2442 32.8137 14.856 34.9331L16.5101 32.8949ZM4.8125 16.307C4.8125 11.2239 7.03091 8.08168 9.77553 7.00697C12.5141 5.93464 16.3457 6.70001 20.0413 10.6525L21.9587 8.8597C17.7797 4.39011 12.8612 2.97966 8.81843 4.56268C4.78174 6.14331 2.1875 10.4875 2.1875 16.307H4.8125ZM27.1441 34.9331C29.7558 32.8137 32.8849 29.9733 35.3722 26.8009C37.8343 23.6607 39.8125 20.0133 39.8125 16.307H37.1875C37.1875 19.127 35.6487 22.1938 33.3065 25.1811C30.9897 28.1361 28.0273 30.8359 25.49 32.8949L27.1441 34.9331ZM39.8125 16.307C39.8125 10.4875 37.2183 6.1433 33.1816 4.56268C29.1389 2.97966 24.2203 4.39011 20.0413 8.8597L21.9587 10.6525C25.6543 6.70001 29.4859 5.93463 32.2245 7.00697C34.969 8.08167 37.1875 11.2239 37.1875 16.307H39.8125ZM14.856 34.9331C17.081 36.7388 18.624 38.0639 21 38.0639V35.4389C19.7349 35.4389 18.9471 34.8724 16.5101 32.8949L14.856 34.9331ZM25.49 32.8949C23.0529 34.8724 22.2651 35.4389 21 35.4389V38.0639C23.376 38.0639 24.9189 36.7388 27.1441 34.9331L25.49 32.8949Z" fill="#00FFEA"/>
<path d="M32.375 15.7515H28.875ZM28.875 15.7515H25.375ZM28.875 15.7515V12.2515ZM28.875 15.7515V19.2515Z" fill="#00FFEA"/>
<path d="M32.375 15.7515H28.875M28.875 15.7515H25.375M28.875 15.7515V12.2515M28.875 15.7515V19.2515" stroke="#00FFEA" stroke-width="2" stroke-linecap="round"/>
</svg>
